# xmcd
#
# Track frame offsets:
#	150
#	14012
#	26537
#	43842
#	54455
#	68787
#	79490
#	101385
#	113727
#	127920
#	136735
#	149245
#
# Disc length: 2206 seconds
#
# Revision: 6
# Processed by: cddbd v1.5.2PL0 Copyright (c) Steve Scherf et al.
# Submitted via: EasyCDDAExtractor 11.1.0.1
#
DISCID=a9089c0c
DTITLE=Jesse Fuller - San Francisco Bay Blues
DYEAR=1963
DGENRE=Blues
TTITLE0=San Francisco Bay Blues
TTITLE1=Jesse's New Midnight Special
TTITLE2=Morning Blues
TTITLE3=Little Black Train
TTITLE4=Midnight Cold
TTITLE5=Whoa Mule
TTITLE6=John Henry
TTITLE7=I Got A Mind To Ramble
TTITLE8=Crazy About A Woman
TTITLE9=Where Could I Go But To The Lord
TTITLE10=Stealin' Back To My Old Time Used To Be
TTITLE11=Brownskin Girl (I've Got My Eye On You)
EXTD=YEAR: 1963
EXTT0=
EXTT1=
EXTT2=
EXTT3=
EXTT4=
EXTT5=
EXTT6=
EXTT7=
EXTT8=
EXTT9=
EXTT10=
EXTT11=
PLAYORDER=
